
<svg version="1.0" xmlns="http://www.w3.org/2000/svg"
 width="400.000000pt" height="400.000000pt" viewBox="0 0 400.000000 400.000000"
 preserveAspectRatio="xMidYMid meet">

<g transform="translate(0.000000,400.000000) scale(0.100000,-0.100000)"
fill="#000000" stroke="none">
<path d="M1750 3983 c-852 -108 -1547 -757 -1710 -1598 -51 -264 -52 -489 -3
-755 108 -590 493 -1111 1033 -1398 514 -273 1136 -305 1675 -85 635 258 1097
821 1218 1483 58 315 46 597 -39 910 -143 526 -534 1000 -1030 1248 -347 174
-759 244 -1144 195z m460 -153 c635 -79 1169 -457 1446 -1025 374 -766 166
-1701 -497 -2235 -848 -682 -2089 -493 -2691 410 -399 599 -412 1378 -33 1989
294 475 783 787 1345 860 95 12 333 13 430 1z"/>
<path d="M1250 2441 l0 -821 130 0 130 0 0 308 0 307 44 -3 c68 -6 212 15 264
38 85 38 145 112 178 219 19 65 19 445 0 519 -30 110 -94 184 -196 224 -50 20
-77 22 -302 26 l-248 4 0 -821z m435 575 c65 -27 70 -47 70 -261 0 -267 -11
-285 -165 -285 l-80 0 0 280 0 280 70 0 c39 0 86 -6 105 -14z"/>
<path d="M2080 2441 l0 -821 130 0 130 0 0 308 0 307 44 -3 c68 -6 212 15 264
38 86 38 151 118 177 218 22 81 30 297 16 421 -19 176 -82 272 -210 323 -51
20 -76 23 -303 26 l-248 4 0 -821z m457 563 c47 -35 55 -78 51 -274 -4 -242
-16 -260 -168 -260 l-80 0 0 281 0 281 84 -3 c66 -3 91 -8 113 -25z"/>
<path d="M2899 1341 c-46 -47 -36 -95 37 -173 46 -49 58 -93 29 -104 -20 -8
-45 13 -45 37 0 14 -7 19 -26 19 -25 0 -26 -2 -21 -37 8 -46 38 -73 83 -73 50
0 74 29 74 89 0 45 -4 54 -51 105 -39 43 -50 61 -47 83 4 36 41 40 46 6 3 -17
10 -23 28 -23 35 0 34 51 -2 79 -37 29 -70 26 -105 -8z"/>
<path d="M3114 1358 c-35 -17 -44 -52 -44 -179 0 -114 1 -121 25 -144 43 -44
114 -30 134 26 14 41 14 216 1 256 -16 46 -69 64 -116 41z m61 -168 c0 -118
-1 -125 -20 -125 -19 0 -20 8 -23 114 -3 127 0 144 25 139 16 -3 18 -17 18
-128z"/>
<path d="M760 1185 l0 -175 25 0 c23 0 24 3 27 67 l3 68 39 6 c53 9 66 30 66
106 0 85 -17 103 -100 103 l-60 0 0 -175z m108 73 c3 -39 0 -49 -18 -58 -31
-17 -40 -4 -40 56 0 54 0 55 28 52 25 -3 27 -7 30 -50z"/>
<path d="M960 1185 l0 -175 25 0 25 0 0 175 0 175 -25 0 -25 0 0 -175z"/>
<path d="M1060 1335 c0 -23 4 -25 45 -25 25 0 45 -3 45 -8 0 -4 -23 -61 -50
-126 -28 -66 -50 -129 -48 -140 3 -19 11 -21 81 -24 77 -3 77 -3 77 23 0 23
-3 25 -50 25 -27 0 -50 2 -50 4 0 3 23 58 50 123 28 65 50 130 50 145 l0 28
-75 0 c-73 0 -75 -1 -75 -25z"/>
<path d="M1250 1335 c0 -23 3 -25 49 -25 l50 0 -46 -107 c-26 -60 -48 -127
-51 -151 l-4 -43 78 3 c73 3 79 5 82 25 3 20 -2 22 -52 25 l-55 3 54 129 c30
71 55 137 55 147 0 17 -9 19 -80 19 -79 0 -80 0 -80 -25z"/>
<path d="M1485 1338 c-5 -24 -44 -268 -48 -303 -1 -12 5 -21 17 -23 22 -5 36
13 36 46 0 18 5 22 35 22 31 0 35 -3 41 -35 5 -28 11 -35 30 -35 17 0 24 6 24
18 0 18 -18 136 -41 270 l-11 62 -39 0 c-32 0 -39 -4 -44 -22z m65 -193 c0
-15 -7 -20 -26 -20 -23 0 -25 3 -20 30 3 17 9 55 13 85 l7 55 13 -65 c6 -36
12 -74 13 -85z"/>
<path d="M1742 1188 l3 -173 28 -3 27 -3 0 70 0 71 33 0 c52 0 72 29 72 105 0
88 -17 105 -102 105 l-63 0 2 -172z m108 68 c0 -40 -4 -55 -16 -60 -30 -12
-34 -6 -34 54 0 57 1 60 25 60 24 0 25 -3 25 -54z"/>
<path d="M1951 1213 c-13 -82 -25 -160 -28 -175 -5 -25 -2 -28 21 -28 19 0 26
5 26 19 0 38 11 51 45 51 31 0 34 -3 37 -32 2 -28 8 -34 31 -36 15 -2 27 1 27
7 0 5 -9 63 -19 128 -11 65 -23 139 -27 166 l-6 47 -42 0 -42 0 -23 -147z m83
-54 c5 -34 4 -36 -19 -31 -29 5 -29 11 -13 101 l12 66 7 -50 c4 -27 10 -66 13
-86z"/>
<path d="M2150 1185 l0 -175 25 0 c24 0 25 2 25 75 0 41 4 75 9 75 31 0 41
-14 41 -59 0 -70 9 -91 36 -91 23 0 24 3 24 68 0 43 -5 75 -14 87 -12 17 -12
22 0 39 8 11 14 42 14 68 0 69 -22 88 -100 88 l-60 0 0 -175z m100 75 c0 -47
-2 -50 -25 -50 -23 0 -25 3 -25 50 0 47 2 50 25 50 23 0 25 -3 25 -50z"/>
<path d="M2371 1208 c-13 -84 -25 -163 -28 -175 -4 -19 -1 -23 20 -23 20 0 26
6 31 35 6 32 10 35 41 35 31 0 34 -3 37 -32 2 -28 8 -34 31 -36 15 -2 27 1 27
7 0 5 -9 63 -19 128 -11 65 -23 139 -27 166 l-6 47 -42 0 -42 0 -23 -152z m82
-35 c4 -37 3 -41 -19 -46 -29 -5 -30 5 -12 102 l12 66 7 -40 c3 -22 9 -59 12
-82z"/>
<path d="M2570 1184 l0 -176 60 4 c95 7 100 15 100 175 0 163 -6 173 -100 173
l-60 0 0 -176z m108 12 c3 -113 -4 -136 -39 -136 -18 0 -19 9 -19 126 l0 125
28 -3 27 -3 3 -109z"/>
<path d="M2780 1185 l0 -175 25 0 25 0 0 175 0 175 -25 0 -25 0 0 -175z"/>
</g>
</svg>
